<?xml version="1.0" encoding="UTF-8"?>
<svg version="1.1" xmlns="http://www.w3.org/2000/svg" width="140" height="151">
<path d="M0 0 C46.2 0 92.4 0 140 0 C140 49.83 140 99.66 140 151 C93.8 151 47.6 151 0 151 C0 101.17 0 51.34 0 0 Z " fill="#010101" transform="translate(0,0)"/>
<path d="M0 0 C3.98188072 -0.32402631 7.9585917 -0.55828262 11.95068359 -0.71411133 C13.30393061 -0.77908137 14.65627856 -0.86752262 16.00634766 -0.98071289 C20.59035066 -1.35509008 24.58304492 -1.34171294 29 0 C32.27599121 3.29440304 34.17477084 6.95478069 36.09985352 11.11624146 C37.59058637 14.23593452 39.38515847 17.17256554 41.140625 20.1484375 C41.82803267 21.34882549 42.512928 22.55065565 43.1953125 23.75390625 C43.53336914 24.34961426 43.87142578 24.94532227 44.21972656 25.55908203 C44.5597168 26.15833496 44.89970703 26.75758789 45.25 27.375 C46.2939331 29.20939498 47.33847616 31.04344053 48.38342285 32.8772583 C49.35754719 34.59026971 50.32633018 36.30631513 51.29492188 38.02246094 C52.30513406 39.78657145 53.33539528 41.5398422 54.40820312 43.26660156 C57.05363739 47.52969846 57.05363739 47.52969846 56.78833008 49.85595703 C55.79182884 52.56616882 54.40604707 54.77621535 52.83984375 57.203125 C52.21142578 58.1828125 51.58300781 59.1625 50.93554688 60.171875 C50.27619141 61.18765625 49.61683594 62.2034375 48.9375 63.25 C48.27427734 64.28125 47.61105469 65.3125 46.92773438 66.375 C45.2900549 68.91988322 43.64732963 71.461357 42 74 C39.21467884 70.66327583 36.92791016 67.3379763 34.828125 63.53515625 C34.25030273 62.49488281 33.67248047 61.45460937 33.07714844 60.3828125 C32.47418945 59.28710938 31.87123047 58.19140625 31.25 57.0625 C29.98996752 54.79275543 28.72955384 52.52322244 27.46875 50.25390625 C26.86675781 49.1673877 26.26476562 48.08086914 25.64453125 46.96142578 C21.2736376 39.09044301 16.77279967 31.2967141 12.19384766 23.54516602 C0 2.9023047 0 2.9023047 0 0 Z " fill="#F9F9F9" transform="translate(28,48)"/>
<path d="M0 0 C10.56 0 21.12 0 32 0 C30.6059933 3.48501674 29.33537777 6.32905832 27.46875 9.50390625 C26.74751953 10.73850586 26.74751953 10.73850586 26.01171875 11.99804688 C25.51285156 12.84431641 25.01398438 13.69058594 24.5 14.5625 C23.50936052 16.25068277 22.51973952 17.9394637 21.53125 19.62890625 C21.09361328 20.37213135 20.65597656 21.11535645 20.20507812 21.88110352 C19.06250406 23.89009871 18.01254331 25.92293537 17 28 C16.34 28 15.68 28 15 28 C15.09023437 26.7934375 15.18046875 25.586875 15.2734375 24.34375 C15.86712452 15.82697549 15.86712452 15.82697549 12.57861328 8.36230469 C8.75438366 5.45678027 4.48246241 3.65417322 0 2 C0 1.34 0 0.68 0 0 Z " fill="#E3E3E3" transform="translate(81,47)"/>
</svg>
